<?xml version="1.0" standalone="no"?>
<!DOCTYPE svg PUBLIC "-//W3C//DTD SVG 20010904//EN"
 "http://www.w3.org/TR/2001/REC-SVG-20010904/DTD/svg10.dtd">
<svg version="1.0" xmlns="http://www.w3.org/2000/svg"
 width="262.000000pt" height="262.000000pt" viewBox="0 0 262.000000 262.000000"
 preserveAspectRatio="xMidYMid meet">
<metadata>
Created by potrace 1.11, written by Peter Selinger 2001-2013
</metadata>
<g transform="translate(0.000000,262.000000) scale(0.100000,-0.100000)"
fill="#000000" stroke="none">
<path d="M920 2034 c-51 -18 -119 -66 -170 -118 -29 -30 -39 -35 -65 -30 -78
14 -286 -55 -354 -119 -58 -55 -89 -153 -61 -197 7 -11 -7 -24 -58 -59 -177
-119 -240 -246 -166 -337 16 -21 48 -47 70 -58 21 -11 40 -23 42 -26 1 -4 17
-5 35 -3 l32 3 -33 -15 c-18 -9 -37 -13 -43 -10 -5 4 -9 2 -9 -3 0 -6 -14 -15
-32 -21 -71 -25 -86 -71 -47 -141 20 -35 84 -78 91 -62 4 9 210 97 276 119 26
8 67 24 92 35 25 11 55 21 67 22 13 0 23 5 23 10 0 4 9 6 20 3 11 -3 18 -1 15
3 -6 9 54 32 65 25 5 -3 10 -1 12 3 3 7 119 47 164 57 11 2 28 7 38 11 15 6
18 4 12 -7 -5 -9 -3 -9 6 2 16 19 142 54 159 43 7 -4 10 -3 6 2 -3 6 33 18 81
28 110 24 108 24 104 8 -1 -8 2 -11 8 -7 6 3 7 11 4 17 -5 7 2 9 19 6 15 -3
24 -1 21 3 -3 5 5 9 18 10 13 0 32 3 43 5 11 3 43 6 71 7 29 1 50 5 48 9 -2 3
18 6 45 4 27 -1 47 2 44 7 -2 4 13 8 34 8 51 -1 121 7 132 14 5 3 12 -1 14 -7
4 -9 8 -9 14 -3 4 6 19 11 33 12 87 5 138 6 147 0 6 -4 13 -3 17 1 4 4 55 8
114 9 59 1 129 7 157 12 27 5 54 7 60 4 5 -4 7 -3 3 2 -4 4 5 18 20 30 50 42
35 111 -32 150 -23 13 -91 36 -151 50 -60 14 -114 30 -121 35 -6 6 -14 7 -17
3 -12 -11 -8 3 14 52 35 79 11 137 -62 152 -19 3 -46 15 -61 26 -22 16 -35 18
-70 13 -24 -4 -65 -9 -93 -11 -69 -4 -143 -22 -180 -44 l-31 -18 -16 27 c-25
43 -93 47 -165 9 -19 -10 -26 -9 -43 6 -25 23 -94 24 -136 2 -27 -14 -36 -14
-70 -2 -21 7 -49 11 -62 8 -17 -4 -21 -2 -16 11 3 9 9 14 13 12 3 -2 7 6 8 17
1 12 5 49 9 83 5 54 4 63 -17 88 -30 34 -80 41 -139 20z m-329 -356 c-10 -24
-21 -52 -25 -62 -6 -18 -8 -18 -22 -4 -12 12 -24 14 -45 8 -34 -10 -40 7 -11
33 19 17 103 67 114 67 4 0 -1 -19 -11 -42z m1355 -195 c24 -16 43 -30 44 -33
0 -3 -34 -6 -75 -7 l-76 -3 28 35 c15 19 30 35 32 35 2 0 23 -12 47 -27z
m-1409 -34 c1 -14 -3 -19 -12 -15 -8 3 -14 1 -12 -3 6 -21 -118 -100 -223
-141 l-54 -21 19 22 c50 58 193 157 227 158 9 1 20 6 23 11 11 17 31 11 32
-11z m1178 -9 c3 -5 -1 -10 -9 -10 -9 0 -16 5 -16 10 0 6 4 10 9 10 6 0 13 -4
16 -10z m-389 -15 c4 -8 12 -15 20 -15 31 0 11 -16 -23 -18 -20 -2 -40 -5 -44
-8 -5 -3 -1 9 9 25 19 34 30 39 38 16z m-223 -48 c-3 -5 -2 -7 3 -4 6 3 16 2
24 -4 8 -5 11 -9 5 -10 -15 -1 -45 -7 -72 -14 -17 -4 -21 -2 -17 10 4 8 10 15
14 15 4 0 10 10 13 22 5 18 8 19 21 9 9 -8 13 -18 9 -24z m-197 -59 c4 -7 3
-8 -4 -4 -7 4 -12 2 -12 -3 0 -6 -7 -11 -16 -11 -14 0 -14 3 -4 15 15 18 26
19 36 3z m-252 -67 c3 -5 -14 -16 -37 -25 -59 -22 -66 -20 -26 8 37 26 55 31
63 17z"/>
<path d="M2133 1269 c-2 -23 3 -25 10 -4 4 8 3 16 -1 19 -4 3 -9 -4 -9 -15z"/>
<path d="M2429 1263 c-13 -16 -12 -17 4 -4 9 7 17 15 17 17 0 8 -8 3 -21 -13z"/>
<path d="M2190 1262 c0 -5 7 -9 15 -9 8 0 12 4 9 9 -3 4 -9 8 -15 8 -5 0 -9
-4 -9 -8z"/>
<path d="M1690 1240 c0 -5 5 -10 11 -10 5 0 7 5 4 10 -3 6 -8 10 -11 10 -2 0
-4 -4 -4 -10z"/>
<path d="M1735 1240 c-3 -5 -1 -10 4 -10 6 0 11 5 11 10 0 6 -2 10 -4 10 -3 0
-8 -4 -11 -10z"/>
<path d="M2296 1238 c3 -5 10 -6 15 -3 13 9 11 12 -6 12 -8 0 -12 -4 -9 -9z"/>
<path d="M1596 1227 c3 -10 9 -15 12 -12 3 3 0 11 -7 18 -10 9 -11 8 -5 -6z"/>
<path d="M1630 1226 c0 -2 7 -7 16 -10 8 -3 12 -2 9 4 -6 10 -25 14 -25 6z"/>
<path d="M1779 1228 c-5 -18 -6 -38 -1 -34 7 8 12 36 6 36 -2 0 -4 -1 -5 -2z"/>
<path d="M1970 1219 c0 -5 5 -7 10 -4 6 3 10 8 10 11 0 2 -4 4 -10 4 -5 0 -10
-5 -10 -11z"/>
<path d="M1375 1211 c-3 -5 -2 -12 3 -15 5 -3 9 1 9 9 0 17 -3 19 -12 6z"/>
<path d="M2115 1209 c-4 -6 -5 -12 -2 -15 2 -3 7 2 10 11 7 17 1 20 -8 4z"/>
<path d="M1429 1183 c-13 -16 -12 -17 4 -4 16 13 21 21 13 21 -2 0 -10 -8 -17
-17z"/>
<path d="M1596 1187 c3 -10 9 -15 12 -12 3 3 0 11 -7 18 -10 9 -11 8 -5 -6z"/>
<path d="M1250 1179 c0 -5 5 -7 10 -4 6 3 10 8 10 11 0 2 -4 4 -10 4 -5 0 -10
-5 -10 -11z"/>
<path d="M1135 1159 c-3 -4 2 -6 10 -5 21 3 28 13 10 13 -9 0 -18 -4 -20 -8z"/>
<path d="M1374 1156 c1 -8 5 -18 8 -22 4 -3 5 1 4 10 -1 8 -5 18 -8 22 -4 3
-5 -1 -4 -10z"/>
<path d="M1555 1159 c-3 -4 2 -6 10 -5 21 3 28 13 10 13 -9 0 -18 -4 -20 -8z"/>
<path d="M1219 1148 c-5 -18 -6 -38 -1 -34 7 8 12 36 6 36 -2 0 -4 -1 -5 -2z"/>
<path d="M1795 1141 c-3 -5 -2 -12 3 -15 5 -3 9 1 9 9 0 17 -3 19 -12 6z"/>
<path d="M1013 1125 c0 -8 4 -12 9 -9 5 3 6 10 3 15 -9 13 -12 11 -12 -6z"/>
<path d="M1090 1120 c0 -5 5 -10 11 -10 5 0 7 5 4 10 -3 6 -8 10 -11 10 -2 0
-4 -4 -4 -10z"/>
<path d="M1336 1122 c-3 -5 1 -9 9 -9 8 0 12 4 9 9 -3 4 -7 8 -9 8 -2 0 -6 -4
-9 -8z"/>
<path d="M1175 1091 c-3 -5 -2 -12 3 -15 5 -3 9 1 9 9 0 17 -3 19 -12 6z"/>
<path d="M850 1079 c0 -5 5 -7 10 -4 6 3 10 8 10 11 0 2 -4 4 -10 4 -5 0 -10
-5 -10 -11z"/>
<path d="M1070 1061 c0 -6 4 -13 10 -16 6 -3 7 1 4 9 -7 18 -14 21 -14 7z"/>
<path d="M955 1050 c-4 -6 -11 -7 -17 -4 -7 4 -8 2 -4 -5 6 -9 11 -9 22 0 14
11 18 19 10 19 -3 0 -8 -5 -11 -10z"/>
<path d="M739 1048 c-5 -18 -6 -38 -1 -34 7 8 12 36 6 36 -2 0 -4 -1 -5 -2z"/>
<path d="M1014 1042 c4 -3 14 -7 22 -8 9 -1 13 0 10 4 -4 3 -14 7 -22 8 -9 1
-13 0 -10 -4z"/>
<path d="M893 1005 c0 -8 4 -12 9 -9 5 3 6 10 3 15 -9 13 -12 11 -12 -6z"/>
<path d="M810 999 c0 -5 5 -7 10 -4 6 3 10 8 10 11 0 2 -4 4 -10 4 -5 0 -10
-5 -10 -11z"/>
<path d="M650 960 c0 -5 5 -10 11 -10 5 0 7 5 4 10 -3 6 -8 10 -11 10 -2 0 -4
-4 -4 -10z"/>
<path d="M955 940 c3 -5 8 -10 11 -10 2 0 4 5 4 10 0 6 -5 10 -11 10 -5 0 -7
-4 -4 -10z"/>
<path d="M590 916 c0 -2 8 -10 18 -17 15 -13 16 -12 3 4 -13 16 -21 21 -21 13z"/>
<path d="M539 908 c-5 -18 -6 -38 -1 -34 7 8 12 36 6 36 -2 0 -4 -1 -5 -2z"/>
<path d="M334 882 c4 -3 14 -7 22 -8 9 -1 13 0 10 4 -4 3 -14 7 -22 8 -9 1
-13 0 -10 -4z"/>
<path d="M377 855 c-4 -8 -3 -16 1 -19 4 -3 9 4 9 15 2 23 -3 25 -10 4z"/>
<path d="M336 842 c-3 -5 1 -9 9 -9 8 0 12 4 9 9 -3 4 -7 8 -9 8 -2 0 -6 -4
-9 -8z"/>
<path d="M373 795 c0 -8 4 -12 9 -9 5 3 6 10 3 15 -9 13 -12 11 -12 -6z"/>
<path d="M316 782 c-3 -5 1 -9 9 -9 8 0 12 4 9 9 -3 4 -7 8 -9 8 -2 0 -6 -4
-9 -8z"/>
</g>
</svg>
